<?xml version="1.0" encoding="utf-8"?>
<!-- Generator: Adobe Illustrator 16.0.0, SVG Export Plug-In . SVG Version: 6.00 Build 0)  -->
<!DOCTYPE svg PUBLIC "-//W3C//DTD SVG 1.1//EN" "http://www.w3.org/Graphics/SVG/1.1/DTD/svg11.dtd">
<svg version="1.1" id="Layer_1" xmlns="http://www.w3.org/2000/svg" xmlns:xlink="http://www.w3.org/1999/xlink" x="0px" y="0px"
	 width="960px" height="744.997px" viewBox="0 0 960 744.997" enable-background="new 0 0 960 744.997" xml:space="preserve">
<g>
	<g>
		<path fill="#489AFF" d="M799.915,610.543c37.271-22.779,49.017-71.457,26.236-108.728c-5.082-8.312-11.505-15.281-18.751-20.957
			c9.433-13.352,20.246-26.254,32.522-38.516c5.689-5.686,11.468-11.051,17.308-16.184c2.337,1.969,4.627,4.006,6.855,6.131
			l19.428-11.873c9.935-6.074,22.917-2.943,28.991,6.996l19.249,31.494c6.075,9.939,2.938,22.916-6.996,28.99L905.33,499.77
			c4.363,14.758,6.395,29.885,6.221,44.892l21.957,6.127c11.219,3.131,17.777,14.764,14.646,25.982l-9.921,35.555
			c-3.132,11.219-14.764,17.771-25.982,14.646l-21.934-6.123c-5.821,9.875-12.799,19.15-20.876,27.629l11.877,19.422
			c6.074,9.939,2.938,22.922-6.997,28.996l-31.492,19.25c-9.939,6.07-22.922,2.938-28.996-7.002l-11.872-19.422
			c-11.374,3.361-22.964,5.309-34.554,5.957c-6.62-23.721-9.563-48.533-8.675-73.611
			C772.796,622.072,787.037,618.414,799.915,610.543z"/>
		<g>
			<g>
				<path fill="#E3EAFF" d="M744.876,702.299H66c-18.422,0-33.354-14.932-33.354-33.354V205.902
					c0-18.422,14.933-33.354,33.354-33.354h678.875c18.422,0,33.354,14.933,33.354,33.354v463.043
					C778.23,687.367,763.298,702.299,744.876,702.299z"/>
				<path fill="#6DB8FF" d="M741.984,695.332H68.892c-14.599,0-26.436-11.84-26.436-26.439V205.949
					c0-14.599,11.837-26.434,26.436-26.434h673.092c14.6,0,26.434,11.835,26.434,26.434v462.944
					C768.418,683.492,756.584,695.332,741.984,695.332z"/>
				<path fill="#2F6DFF" d="M720.737,649.812H90.14c-9,0-16.292-7.291-16.292-16.287V220.078c0-8.994,7.292-16.291,16.292-16.291
					h630.598c8.999,0,16.291,7.297,16.291,16.291v413.448C737.028,642.521,729.736,649.812,720.737,649.812z"/>
				<path fill="#E3EAFF" d="M14.544,674.832c-2.149,3.959-3.479,8.426-3.479,13.244c0,15.441,12.516,27.957,27.959,27.957h732.832
					c15.44,0,27.957-12.516,27.957-27.957c0-4.818-1.331-9.285-3.479-13.244H14.544z"/>
			</g>
			<path fill="#C8D6F2" d="M14.544,701.322c4.73,8.721,13.858,14.711,24.48,14.711h732.832c10.621,0,19.747-5.99,24.478-14.711
				H14.544z"/>
		</g>
		<path opacity="0.2" fill="#424261" d="M744.876,172.547H247.354v332.479c0,7.354,5.962,13.311,13.315,13.311H778.23V205.902
			C778.23,187.48,763.298,172.547,744.876,172.547z"/>
		<path opacity="0.21" fill="#E3EAFF" d="M834.756,503.362H278.974c-7.354,0-13.315-5.957-13.315-13.311v-342.79
			c0-7.354,5.962-13.311,13.315-13.311h555.782c7.354,0,13.315,5.957,13.315,13.311v342.79
			C848.071,497.405,842.109,503.362,834.756,503.362z"/>
		<path fill="#F9FBFC" d="M858.054,478.405H302.271c-7.354,0-13.315-5.963-13.315-13.316V122.299
			c0-7.349,5.962-13.311,13.315-13.311h555.783c7.354,0,13.311,5.962,13.311,13.311v342.789
			C871.364,472.442,865.407,478.405,858.054,478.405z"/>
		<path opacity="0.2" fill="#424261" d="M181.42,361.09h-59.074c-4.598,0-8.322-3.724-8.322-8.322v-62.402
			c0-4.594,3.724-8.317,8.322-8.317h59.074c4.594,0,8.317,3.724,8.317,8.317v62.402C189.738,357.367,186.014,361.09,181.42,361.09z"
			/>
		<path fill="#6DB8FF" d="M177.053,475.909h-59.074c-4.598,0-8.322-3.729-8.322-8.322v-62.402c0-4.594,3.724-8.318,8.322-8.318
			h59.074c4.594,0,8.317,3.725,8.317,8.318v62.402C185.37,472.18,181.646,475.909,177.053,475.909z"/>
		<path fill="#6DB8FF" d="M177.053,588.229h-59.074c-4.598,0-8.322-3.729-8.322-8.322v-62.402c0-4.594,3.724-8.316,8.322-8.316
			h59.074c4.594,0,8.317,3.723,8.317,8.316v62.402C185.37,584.5,181.646,588.229,177.053,588.229z"/>
		<g>
			<path fill="#9570EE" d="M164.057,540.002c0-9.939-8.059-17.998-17.999-17.998c-9.939,0-17.999,8.059-17.999,17.998
				c0,0-2.534,19.062,17.999,34.22C166.591,559.064,164.057,540.002,164.057,540.002z"/>
			<path fill="#F9FBFC" d="M147.116,552.994c-8.031,0.635-14.684-6.02-14.054-14.048c0.498-6.32,5.619-11.439,11.938-11.939
				c8.031-0.629,14.684,6.023,14.049,14.054C158.551,547.379,153.436,552.494,147.116,552.994z"/>
		</g>
		<g>
			<g>
				<g>
					<path fill="#9570EE" d="M170.602,435.34c0,13.754-11.148,24.9-24.896,24.9c-13.753,0-24.901-11.146-24.901-24.9
						c0-13.748,11.148-24.896,24.901-24.896C159.454,410.444,170.602,421.592,170.602,435.34z"/>
					<path fill="#F9FBFC" d="M165.782,435.34c0,11.092-8.99,20.082-20.077,20.082c-11.091,0-20.082-8.99-20.082-20.082
						c0-11.086,8.99-20.076,20.082-20.076C156.792,415.264,165.782,424.254,165.782,435.34z"/>
					<path fill="#BB87EE" d="M145.706,415.264c9.098,0,16.781,6.051,19.249,14.354c0.099,0.344,0.409,0.584,0.767,0.584l0,0
						c0.536,0,0.926-0.512,0.776-1.025c-2.657-8.971-10.96-15.52-20.792-15.52c-9.836,0-18.135,6.549-20.792,15.52
						c-0.155,0.514,0.235,1.025,0.771,1.025l0,0c0.357,0,0.667-0.24,0.771-0.584C128.92,421.315,136.603,415.264,145.706,415.264z"
						/>
					<path fill="#7F57EE" d="M167.978,435.985c-1.194,0-2.224,0.869-2.379,2.055c-1.321,9.812-9.723,17.383-19.893,17.383
						c-10.175,0-18.577-7.57-19.893-17.383c-0.16-1.186-1.19-2.055-2.384-2.055l0,0c-1.448,0-2.586,1.273-2.393,2.709
						c1.636,12.162,12.056,21.547,24.67,21.547c12.61,0,23.029-9.385,24.666-21.547
						C170.564,437.258,169.426,435.985,167.978,435.985L167.978,435.985z"/>
					<path fill="#F9FBFC" d="M165.782,435.34c0,11.092-8.99,20.082-20.077,20.082c-11.091,0-20.082-8.99-20.082-20.082
						c0-11.086,8.99-20.076,20.082-20.076C156.792,415.264,165.782,424.254,165.782,435.34z"/>
					<path fill="#9570EE" d="M165.274,441.819c-0.338,0-0.64,0.217-0.757,0.537c-2.845,7.627-10.193,13.066-18.812,13.066
						c-8.623,0-15.972-5.439-18.817-13.066c-0.117-0.32-0.418-0.537-0.757-0.537l0,0c-0.56,0-0.954,0.561-0.757,1.086
						c3.07,8.248,11.012,14.121,20.331,14.121c9.314,0,17.26-5.873,20.331-14.121C166.229,442.379,165.834,441.819,165.274,441.819
						L165.274,441.819z"/>
				</g>
				<path fill="#9570EE" d="M145.649,437.108L145.649,437.108c-0.532,0-0.964-0.432-0.964-0.963v-14.139
					c0-0.531,0.432-0.959,0.964-0.959l0,0c0.531,0,0.964,0.428,0.964,0.959v14.139C146.613,436.676,146.181,437.108,145.649,437.108
					z"/>
				<path fill="#9570EE" d="M144.953,435.608L144.953,435.608c0.343-0.404,0.955-0.455,1.359-0.111l8.722,7.367
					c0.404,0.344,0.456,0.955,0.113,1.359l0,0c-0.343,0.408-0.95,0.455-1.359,0.111l-8.717-7.367
					C144.662,436.624,144.61,436.018,144.953,435.608z"/>
			</g>
			<g>
				<rect x="145.142" y="416.627" fill="#CED6FF" width="0.724" height="1.928"/>
				<rect x="145.142" y="451.807" fill="#CED6FF" width="0.724" height="1.928"/>
			</g>
			<g>
				<rect x="126.95" y="434.819" fill="#CED6FF" width="1.928" height="0.725"/>
				<rect x="162.129" y="434.819" fill="#CED6FF" width="1.928" height="0.725"/>
			</g>
			<g>
				
					<rect x="132.703" y="421.779" transform="matrix(0.7078 -0.7064 0.7064 0.7078 -259.755 217.535)" fill="#CED6FF" width="0.724" height="1.928"/>
				
					<rect x="157.58" y="446.655" transform="matrix(0.7074 -0.7068 0.7068 0.7074 -270.157 242.5824)" fill="#CED6FF" width="0.724" height="1.928"/>
			</g>
			<g>
				
					<rect x="132.703" y="446.655" transform="matrix(-0.7078 -0.7064 0.7064 -0.7078 -88.9677 858.4373)" fill="#CED6FF" width="0.724" height="1.928"/>
				
					<rect x="157.579" y="421.778" transform="matrix(-0.7061 -0.7081 0.7081 -0.7061 -29.8855 833.0794)" fill="#CED6FF" width="0.725" height="1.928"/>
			</g>
		</g>
		<g>
			<path fill="#6DB8FF" d="M177.053,358.593h-59.074c-4.598,0-8.322-3.724-8.322-8.322v-62.397c0-4.599,3.724-8.322,8.322-8.322
				h59.074c4.594,0,8.317,3.724,8.317,8.322v62.397C185.37,354.87,181.646,358.593,177.053,358.593z"/>
			<g>
				<polyline fill="#F7D3A9" points="106.018,350.483 112.257,346.11 115.064,335.813 111.946,335.193 110.075,338.935 
					111.946,321.153 108.825,321.774 105.707,338.935 101.96,347.05 105.392,349.232 				"/>
				<polygon fill="#F7D3A9" points="142.936,368.994 143.769,361.503 152.923,352.354 155.001,355.265 151.672,359.007 
					169.149,354.851 169.149,358.593 152.923,364.833 149.594,370.659 				"/>
				<g>
					<g>
						<polygon fill="#544DB8" points="29.025,554.117 63.057,720.594 88.809,717.834 71.337,711.396 77.774,709.559 68.577,554.117 
													"/>
						<path fill="#544DB8" d="M83.294,551.361c0,0,43.229,40.469,36.787,89.213c-7.358,38.631-22.992,53.346-22.992,53.346
							l-4.599-0.916l7.128,18.854l-20.697-22.074c0,0,25.526-35.18,9.658-71.74c-15.864-36.561-50.354-49.67-50.354-49.67
							s29.661-26.898,31.73-26.213C72.023,542.852,83.294,551.361,83.294,551.361z"/>
						<g>
							<path fill="#FF8B40" d="M101.688,344.182c0,0-71.052,86.23-79.329,103.477c0,0-3.451,6.207-3.451,24.145
								c0,17.932,6.208,84.158,6.208,84.158l72.434,4.137c0,0-23.458-80.71-24.144-82.779c-0.691-2.068-12.417-14.486-23.455-17.246
								l60.703-109.679L101.688,344.182z"/>
							<g>
								<path fill="#F7D3A9" d="M56.695,451.745c0,0,3.019,8.953,4.686,14.369c0,0-14.785-0.314-19.99-7.184l5.518-13.223
									L56.695,451.745z"/>
								<g>
									<path fill="#F7D3A9" d="M67.938,423.76c0,0,4.373,25.465,0,31.252c-4.37,5.789-19.362-4.053-25.61-13.311
										c-6.247-9.262-7.495-30.096,3.124-31.83C56.07,408.131,65.441,414.497,67.938,423.76z"/>
								</g>
							</g>
							<path fill="#FF8B40" d="M61.216,470.901c0,0,56.965-35.834,61.559-43.188c4.594-7.348,17.458-62.016,17.458-62.016
								l11.026,2.755c0,0-6.432,61.101-8.271,67.532s-57.884,66.154-70.748,66.154C59.38,502.139,54.784,485.598,61.216,470.901z"/>
						</g>
					</g>
					<path fill="#544DB8" d="M37.272,411.008c0,0,7.487-10.4,20.801-7.904c13.311,2.498,16.64-0.412,16.64-0.412
						s-2.91,14.557-12.065,17.885C53.496,423.905,51,423.073,51,423.073s4.993,4.994,6.242,8.736
						c1.248,3.742-4.161-4.574-6.242-1.664c-2.079,2.91,0,9.154,4.161,8.736c4.159-0.414,1.665,2.91,0,6.238
						c-1.664,3.33-4.161,7.49-6.655,6.24c-2.497-1.246-11.232-6.24-14.562-16.641C30.617,424.319,29.785,414.338,37.272,411.008z"/>
				</g>
			</g>
		</g>
		<path fill="#E3EAFF" d="M493.217,442.209H330.976c-3.451,0-6.244-2.793-6.244-6.238V153.919c0-3.451,2.792-6.244,6.244-6.244
			h162.241c3.446,0,6.239,2.793,6.239,6.244v282.052C499.456,439.417,496.663,442.209,493.217,442.209z"/>
		<path fill="#6DB8FF" d="M462.847,196.348H359.676c-2.755,0-4.989-2.233-4.989-4.993v-14.971c0-2.76,2.233-4.993,4.989-4.993
			h103.171c2.755,0,4.994,2.233,4.994,4.993v14.971C467.841,194.115,465.603,196.348,462.847,196.348z"/>
		<path fill="#6DB8FF" d="M392.546,335.084h-22.47c-5.285,0-9.568-4.283-9.568-9.563l0,0c0-5.28,4.283-9.568,9.568-9.568h22.47
			c5.28,0,9.563,4.288,9.563,9.568l0,0C402.109,330.801,397.826,335.084,392.546,335.084z"/>
		<path fill="#9570EE" d="M457.445,335.084H434.97c-5.28,0-9.563-4.283-9.563-9.563l0,0c0-5.28,4.284-9.568,9.563-9.568h22.475
			c5.28,0,9.563,4.288,9.563,9.568l0,0C467.008,330.801,462.725,335.084,457.445,335.084z"/>
		<rect x="352.19" y="221.31" fill="#F9FBFC" width="121.471" height="19.137"/>
		<rect x="352.19" y="253.757" fill="#F9FBFC" width="121.471" height="19.137"/>
		<rect x="378.398" y="284.958" fill="#CDD4FF" width="69.888" height="4.373"/>
		<path fill="#9570EE" d="M859.511,387.711H641.107c-13.442,0-24.337-10.895-24.337-24.336l0,0
			c0-13.438,10.895-24.337,24.337-24.337h218.403c13.438,0,24.337,10.898,24.337,24.337l0,0
			C883.848,376.817,872.948,387.711,859.511,387.711z"/>
		<g>
			<path fill="#E3EAFF" d="M670.437,181.373H534.399c-11.025,0-19.969-8.938-19.969-19.969l0,0c0-11.03,8.943-19.968,19.969-19.968
				h136.037c11.026,0,19.965,8.938,19.965,19.968l0,0C690.401,172.435,681.463,181.373,670.437,181.373z"/>
			<path fill="#FFC240" d="M566.847,161.404c0,3.451-2.793,6.244-6.239,6.244s-6.239-2.793-6.239-6.244
				c0-3.441,2.793-6.238,6.239-6.238S566.847,157.962,566.847,161.404z"/>
			<path fill="#90C240" d="M609.699,161.404c0,3.451-2.793,6.244-6.239,6.244s-6.244-2.793-6.244-6.244
				c0-3.441,2.798-6.238,6.244-6.238S609.699,157.962,609.699,161.404z"/>
			<path fill="#EB4F24" d="M649.218,161.404c0,3.451-2.793,6.244-6.239,6.244s-6.239-2.793-6.239-6.244
				c0-3.441,2.793-6.238,6.239-6.238S649.218,157.962,649.218,161.404z"/>
		</g>
		<g>
			<path fill="#FFFFFF" d="M161.847,323.937c0,8.393-6.803,15.195-15.201,15.195c-8.393,0-15.201-6.803-15.201-15.195
				c0-8.398,6.808-15.206,15.201-15.206C155.043,308.731,161.847,315.539,161.847,323.937z"/>
			<g>
				<path fill="#9570EE" d="M162.402,305.581h-2.675l-3.851-5.426c-0.301-0.423-0.794-0.682-1.321-0.682h-15.356
					c-0.526,0-1.016,0.259-1.321,0.682l-3.846,5.426h-2.68c-4.166,0-7.575,3.404-7.575,7.569v22.038
					c0,4.166,3.409,7.574,7.575,7.574h31.051c4.166,0,7.575-3.408,7.575-7.574V313.15
					C169.977,308.985,166.567,305.581,162.402,305.581z M146.876,335.146c-6.164,0-11.167-4.998-11.167-11.162
					c0-6.169,5.003-11.167,11.167-11.167c6.168,0,11.167,4.998,11.167,11.167C158.043,330.148,153.045,335.146,146.876,335.146z"/>
				<path fill="#6DB8FF" d="M154.258,323.984c0,4.071-3.306,7.377-7.382,7.377c-4.077,0-7.382-3.306-7.382-7.377
					c0-4.082,3.305-7.383,7.382-7.383C150.953,316.601,154.258,319.902,154.258,323.984z"/>
			</g>
		</g>
		<g>
			<path fill="#E3EAFF" d="M690.194,310.198H575.996c-5.435,0-9.841-4.405-9.841-9.846v-68.251c0-5.436,4.406-9.846,9.841-9.846
				h114.198c5.435,0,9.846,4.41,9.846,9.846v68.251C700.04,305.792,695.629,310.198,690.194,310.198z"/>
			<path fill="#FD4940" d="M633.227,265.549h-0.263c-0.598,0-1.186-0.15-1.707-0.442l-51.607-28.671
				c-1.697-0.94-2.312-3.085-1.368-4.786c0.945-1.693,3.085-2.309,4.787-1.364l50.027,27.792l50.026-27.792
				c1.702-0.944,3.842-0.334,4.787,1.364c0.944,1.701,0.334,3.846-1.368,4.786l-51.607,28.671
				C634.412,265.399,633.824,265.549,633.227,265.549z"/>
		</g>
		<path fill="#544DB8" d="M887.59,301.184H739.074c-4.824,0-8.736-3.911-8.736-8.735V95.259c0-4.824,3.912-8.736,8.736-8.736H887.59
			c4.824,0,8.736,3.912,8.736,8.736v197.189C896.326,297.273,892.414,301.184,887.59,301.184z"/>
		<g>
			<path fill="#00CCFF" d="M767.426,115.298h-11.063c-0.588,0-1.062-0.959-1.062-2.14l0,0c0-1.18,0.475-2.139,1.062-2.139h11.063
				c0.588,0,1.062,0.959,1.062,2.139l0,0C768.488,114.339,768.014,115.298,767.426,115.298z"/>
			<path fill="#00CCFF" d="M835.894,115.298h-63.263c-0.588,0-1.067-0.959-1.067-2.14l0,0c0-1.18,0.479-2.139,1.067-2.139h63.263
				c0.588,0,1.062,0.959,1.062,2.139l0,0C836.956,114.339,836.481,115.298,835.894,115.298z"/>
			<path fill="#FF56A9" d="M792.811,124.137h-20.18c-0.588,0-1.067-0.959-1.067-2.139l0,0c0-1.181,0.479-2.14,1.067-2.14h20.18
				c0.588,0,1.063,0.959,1.063,2.14l0,0C793.874,123.178,793.398,124.137,792.811,124.137z"/>
			<path fill="#E3EAFF" d="M826.001,124.137H796.92c-0.587,0-1.066-0.959-1.066-2.139l0,0c0-1.181,0.479-2.14,1.066-2.14h29.081
				c0.588,0,1.067,0.959,1.067,2.14l0,0C827.068,123.178,826.589,124.137,826.001,124.137z"/>
			<path fill="#E3EAFF" d="M835.894,167.168h-63.263c-0.588,0-1.067-0.954-1.067-2.134l0,0c0-1.186,0.479-2.14,1.067-2.14h63.263
				c0.588,0,1.062,0.954,1.062,2.14l0,0C836.956,166.214,836.481,167.168,835.894,167.168z"/>
			<path fill="#00CCFF" d="M767.426,176.008h-11.063c-0.588,0-1.062-0.954-1.062-2.135l0,0c0-1.185,0.475-2.14,1.062-2.14h11.063
				c0.588,0,1.062,0.955,1.062,2.14l0,0C768.488,175.054,768.014,176.008,767.426,176.008z"/>
			<path fill="#E3EAFF" d="M792.811,176.008h-20.18c-0.588,0-1.067-0.954-1.067-2.135l0,0c0-1.185,0.479-2.14,1.067-2.14h20.18
				c0.588,0,1.063,0.955,1.063,2.14l0,0C793.874,175.054,793.398,176.008,792.811,176.008z"/>
			<path fill="#FF56A9" d="M826.001,176.008H796.92c-0.587,0-1.066-0.954-1.066-2.135l0,0c0-1.185,0.479-2.14,1.066-2.14h29.081
				c0.588,0,1.067,0.955,1.067,2.14l0,0C827.068,175.054,826.589,176.008,826.001,176.008z"/>
			<path fill="#FF56A9" d="M851.579,132.977h-78.948c-0.588,0-1.067-0.959-1.067-2.14l0,0c0-1.18,0.479-2.139,1.067-2.139h78.948
				c0.592,0,1.067,0.959,1.067,2.139l0,0C852.646,132.018,852.171,132.977,851.579,132.977z"/>
			<path fill="#00CCFF" d="M835.033,141.817h-18.379c-0.621,0-1.129-0.508-1.129-1.129v-2.021c0-0.626,0.508-1.129,1.129-1.129
				h18.379c0.625,0,1.129,0.503,1.129,1.129v2.021C836.162,141.309,835.658,141.817,835.033,141.817z"/>
			<path fill="#E3EAFF" d="M798.857,141.817h-26.227c-0.588,0-1.067-0.96-1.067-2.145l0,0c0-1.176,0.479-2.135,1.067-2.135h26.227
				c0.588,0,1.062,0.959,1.062,2.135l0,0C799.92,140.857,799.445,141.817,798.857,141.817z"/>
			<path fill="#00CCFF" d="M812.812,141.817h-10.4c-0.588,0-1.062-0.96-1.062-2.145l0,0c0-1.176,0.475-2.135,1.062-2.135h10.4
				c0.588,0,1.067,0.959,1.067,2.135l0,0C813.88,140.857,813.4,141.817,812.812,141.817z"/>
			<path fill="#E3EAFF" d="M767.426,150.355h-11.063c-0.588,0-1.062-0.954-1.062-2.135l0,0c0-1.185,0.475-2.14,1.062-2.14h11.063
				c0.588,0,1.062,0.955,1.062,2.14l0,0C768.488,149.401,768.014,150.355,767.426,150.355z"/>
			<path fill="#E3EAFF" d="M851.579,150.355h-78.948c-0.588,0-1.067-0.954-1.067-2.135l0,0c0-1.185,0.479-2.14,1.067-2.14h78.948
				c0.592,0,1.067,0.955,1.067,2.14l0,0C852.646,149.401,852.171,150.355,851.579,150.355z"/>
			<path fill="#E3EAFF" d="M767.426,184.199h-11.063c-0.588,0-1.062-0.959-1.062-2.145l0,0c0-1.175,0.475-2.135,1.062-2.135h11.063
				c0.588,0,1.062,0.96,1.062,2.135l0,0C768.488,183.24,768.014,184.199,767.426,184.199z"/>
			<path fill="#E3EAFF" d="M842.749,184.199h-25.897c-0.733,0-1.326-0.593-1.326-1.326v-1.627c0-0.733,0.593-1.326,1.326-1.326
				h25.897c0.733,0,1.326,0.593,1.326,1.326v1.627C844.075,183.606,843.482,184.199,842.749,184.199z"/>
			<path fill="#E3EAFF" d="M798.857,184.199h-26.227c-0.588,0-1.067-0.959-1.067-2.145l0,0c0-1.175,0.479-2.135,1.067-2.135h26.227
				c0.588,0,1.062,0.96,1.062,2.135l0,0C799.92,183.24,799.445,184.199,798.857,184.199z"/>
			<path fill="#E3EAFF" d="M812.812,184.199h-10.4c-0.588,0-1.062-0.959-1.062-2.145l0,0c0-1.175,0.475-2.135,1.062-2.135h10.4
				c0.588,0,1.067,0.96,1.067,2.135l0,0C813.88,183.24,813.4,184.199,812.812,184.199z"/>
			<path fill="#FFC359" d="M767.426,192.737h-11.063c-0.588,0-1.062-0.954-1.062-2.134l0,0c0-1.186,0.475-2.14,1.062-2.14h11.063
				c0.588,0,1.062,0.954,1.062,2.14l0,0C768.488,191.783,768.014,192.737,767.426,192.737z"/>
			<path fill="#00CCFF" d="M786.299,192.737h-13.668c-0.588,0-1.067-0.954-1.067-2.134l0,0c0-1.186,0.479-2.14,1.067-2.14h13.668
				c0.588,0,1.067,0.954,1.067,2.14l0,0C787.366,191.783,786.887,192.737,786.299,192.737z"/>
			<path fill="#00CCFF" d="M756.362,159.195c-0.588,0-1.062-0.955-1.062-2.135l0,0c0-1.186,0.475-2.14,1.062-2.14h11.063
				c0.588,0,1.062,0.954,1.062,2.14l0,0c0,1.18-0.475,2.135-1.062,2.135"/>
			<path fill="#E3EAFF" d="M846.374,159.195h-29.438c-0.78,0-1.41-0.631-1.41-1.406v-1.462c0-0.776,0.63-1.406,1.41-1.406h29.438
				c0.775,0,1.41,0.63,1.41,1.406v1.462C847.784,158.564,847.149,159.195,846.374,159.195z"/>
			<path fill="#FFC359" d="M798.857,159.195h-26.227c-0.588,0-1.067-0.955-1.067-2.135l0,0c0-1.186,0.479-2.14,1.067-2.14h26.227
				c0.588,0,1.062,0.954,1.062,2.14l0,0C799.92,158.24,799.445,159.195,798.857,159.195z"/>
			<path fill="#FFC359" d="M812.812,159.195h-10.4c-0.588,0-1.062-0.955-1.062-2.135l0,0c0-1.186,0.475-2.14,1.062-2.14h10.4
				c0.588,0,1.067,0.954,1.067,2.14l0,0C813.88,158.24,813.4,159.195,812.812,159.195z"/>
			<path fill="#E3EAFF" d="M835.894,201.831h-63.263c-0.588,0-1.067-0.959-1.067-2.144l0,0c0-1.176,0.479-2.135,1.067-2.135h63.263
				c0.588,0,1.062,0.959,1.062,2.135l0,0C836.956,200.872,836.481,201.831,835.894,201.831z"/>
			<path fill="#E3EAFF" d="M792.811,210.666h-20.18c-0.588,0-1.067-0.955-1.067-2.14l0,0c0-1.181,0.479-2.135,1.067-2.135h20.18
				c0.588,0,1.063,0.954,1.063,2.135l0,0C793.874,209.71,793.398,210.666,792.811,210.666z"/>
			<path fill="#E3EAFF" d="M826.001,210.666H796.92c-0.587,0-1.066-0.955-1.066-2.14l0,0c0-1.181,0.479-2.135,1.066-2.135h29.081
				c0.588,0,1.067,0.954,1.067,2.135l0,0C827.068,209.71,826.589,210.666,826.001,210.666z"/>
			<path fill="#E3EAFF" d="M835.894,253.701h-63.263c-0.588,0-1.067-0.959-1.067-2.139l0,0c0-1.181,0.479-2.14,1.067-2.14h63.263
				c0.588,0,1.062,0.959,1.062,2.14l0,0C836.956,252.742,836.481,253.701,835.894,253.701z"/>
			<path fill="#FF56A9" d="M767.426,262.541h-11.063c-0.588,0-1.062-0.959-1.062-2.14l0,0c0-1.181,0.475-2.14,1.062-2.14h11.063
				c0.588,0,1.062,0.959,1.062,2.14l0,0C768.488,261.582,768.014,262.541,767.426,262.541z"/>
			<path fill="#00CCFF" d="M792.811,262.541h-20.18c-0.588,0-1.067-0.959-1.067-2.14l0,0c0-1.181,0.479-2.14,1.067-2.14h20.18
				c0.588,0,1.063,0.959,1.063,2.14l0,0C793.874,261.582,793.398,262.541,792.811,262.541z"/>
			<path fill="#E3EAFF" d="M826.001,262.541H796.92c-0.587,0-1.066-0.959-1.066-2.14l0,0c0-1.181,0.479-2.14,1.066-2.14h29.081
				c0.588,0,1.067,0.959,1.067,2.14l0,0C827.068,261.582,826.589,262.541,826.001,262.541z"/>
			<path fill="#FF56A9" d="M767.426,219.504h-11.063c-0.588,0-1.062-0.954-1.062-2.14l0,0c0-1.18,0.475-2.134,1.062-2.134h11.063
				c0.588,0,1.062,0.954,1.062,2.134l0,0C768.488,218.55,768.014,219.504,767.426,219.504z"/>
			<path fill="#FF56A9" d="M829.104,219.504h-56.253c-0.71,0-1.288-0.578-1.288-1.283v-1.707c0-0.71,0.578-1.283,1.288-1.283h56.253
				c0.71,0,1.288,0.573,1.288,1.283v1.707C830.393,218.926,829.814,219.504,829.104,219.504z"/>
			<path fill="#E3EAFF" d="M767.426,228.344h-11.063c-0.588,0-1.062-0.955-1.062-2.14l0,0c0-1.18,0.475-2.135,1.062-2.135h11.063
				c0.588,0,1.062,0.955,1.062,2.135l0,0C768.488,227.389,768.014,228.344,767.426,228.344z"/>
			<path fill="#E3EAFF" d="M798.857,228.344h-26.227c-0.588,0-1.067-0.955-1.067-2.14l0,0c0-1.18,0.479-2.135,1.067-2.135h26.227
				c0.588,0,1.062,0.955,1.062,2.135l0,0C799.92,227.389,799.445,228.344,798.857,228.344z"/>
			<path fill="#E3EAFF" d="M812.812,228.344h-10.4c-0.588,0-1.062-0.955-1.062-2.14l0,0c0-1.18,0.475-2.135,1.062-2.135h10.4
				c0.588,0,1.067,0.955,1.067,2.135l0,0C813.88,227.389,813.4,228.344,812.812,228.344z"/>
			<path fill="#E3EAFF" d="M767.426,236.887h-11.063c-0.588,0-1.062-0.959-1.062-2.135l0,0c0-1.185,0.475-2.144,1.062-2.144h11.063
				c0.588,0,1.062,0.959,1.062,2.144l0,0C768.488,235.928,768.014,236.887,767.426,236.887z"/>
			<path fill="#E3EAFF" d="M844.197,236.887h-71.19c-0.795,0-1.443-0.645-1.443-1.438v-1.393c0-0.799,0.648-1.447,1.443-1.447h71.19
				c0.795,0,1.443,0.648,1.443,1.447v1.393C845.641,236.243,844.992,236.887,844.197,236.887z"/>
			<path fill="#E3EAFF" d="M767.426,270.726h-11.063c-0.588,0-1.062-0.959-1.062-2.14l0,0c0-1.18,0.475-2.139,1.062-2.139h11.063
				c0.588,0,1.062,0.959,1.062,2.139l0,0C768.488,269.767,768.014,270.726,767.426,270.726z"/>
			<path fill="#E3EAFF" d="M851.499,270.726h-34.906c-0.588,0-1.067-0.959-1.067-2.14l0,0c0-1.18,0.479-2.139,1.067-2.139h34.906
				c0.588,0,1.062,0.959,1.062,2.139l0,0C852.562,269.767,852.087,270.726,851.499,270.726z"/>
			<path fill="#E3EAFF" d="M798.857,270.726h-26.227c-0.588,0-1.067-0.959-1.067-2.14l0,0c0-1.18,0.479-2.139,1.067-2.139h26.227
				c0.588,0,1.062,0.959,1.062,2.139l0,0C799.92,269.767,799.445,270.726,798.857,270.726z"/>
			<path fill="#E3EAFF" d="M812.812,270.726h-10.4c-0.588,0-1.062-0.959-1.062-2.14l0,0c0-1.18,0.475-2.139,1.062-2.139h10.4
				c0.588,0,1.067,0.959,1.067,2.139l0,0C813.88,269.767,813.4,270.726,812.812,270.726z"/>
			<path fill="#FFC359" d="M819.329,279.269h-46.59c-0.649,0-1.176-0.526-1.176-1.17v-1.934c0-0.648,0.526-1.175,1.176-1.175h46.59
				c0.645,0,1.171,0.526,1.171,1.175v1.934C820.5,278.743,819.974,279.269,819.329,279.269z"/>
			<path fill="#FF56A9" d="M848.231,245.726h-31.258c-0.799,0-1.448-0.648-1.448-1.447v-1.383c0-0.799,0.649-1.448,1.448-1.448
				h31.258c0.799,0,1.448,0.649,1.448,1.448v1.383C849.68,245.078,849.03,245.726,848.231,245.726z"/>
			<path fill="#FFC359" d="M798.857,245.726h-26.227c-0.588,0-1.067-0.959-1.067-2.134l0,0c0-1.186,0.479-2.145,1.067-2.145h26.227
				c0.588,0,1.062,0.959,1.062,2.145l0,0C799.92,244.767,799.445,245.726,798.857,245.726z"/>
			<path fill="#FFC359" d="M812.812,245.726h-10.4c-0.588,0-1.062-0.959-1.062-2.134l0,0c0-1.186,0.475-2.145,1.062-2.145h10.4
				c0.588,0,1.067,0.959,1.067,2.145l0,0C813.88,244.767,813.4,245.726,812.812,245.726z"/>
		</g>
		<g>
			<path fill="#FF4DD1" d="M917.889,90.957c0,19.302-15.647,34.944-34.944,34.944c-19.301,0-34.948-15.643-34.948-34.944
				c0-19.301,15.647-34.943,34.948-34.943C902.241,56.013,917.889,71.656,917.889,90.957z"/>
			<g>
				<g>
					<path fill="#F9FBFC" d="M880.41,87.68l-13.88,5.087l13.88,5.04v5.21l-19.842-7.542v-5.421l19.842-7.542V87.68z"/>
				</g>
				<g>
					<path fill="#F9FBFC" d="M884.943,82.512l19.841,7.542v5.421l-19.841,7.542v-5.21l13.879-5.04l-13.879-5.087V82.512z"/>
				</g>
			</g>
		</g>
		<g>
			<circle fill="#FFC240" cx="651.799" cy="680.178" r="37.906"/>
			<g>
				<path fill="#FFFFFF" d="M671.81,678.01c0,2.355-0.376,4.504-1.123,6.461c-0.753,1.951-1.815,3.484-3.188,4.594
					c-1.373,1.113-2.967,1.668-4.781,1.668c-1.209,0-2.275-0.291-3.212-0.869c-0.931-0.584-1.599-1.346-2.007-2.295h-0.396
					c-1.763,2.111-4.011,3.164-6.737,3.164c-2.892,0-5.172-0.869-6.842-2.609c-1.664-1.744-2.501-4.123-2.501-7.146
					c0-3.451,1.096-6.225,3.286-8.336c2.191-2.107,5.05-3.16,8.581-3.16c1.406,0,2.953,0.133,4.646,0.404
					c1.688,0.268,3.084,0.594,4.18,0.969l-0.563,11.984c0,2.271,0.62,3.41,1.861,3.41c1.044,0,1.876-0.768,2.502-2.295
					c0.62-1.527,0.931-3.527,0.931-5.994c0-2.629-0.55-4.951-1.646-6.973c-1.091-2.018-2.633-3.555-4.617-4.617
					c-1.989-1.064-4.256-1.596-6.804-1.596c-3.301,0-6.169,0.678-8.604,2.031c-2.436,1.359-4.302,3.316-5.6,5.873
					c-1.303,2.559-1.951,5.512-1.951,8.863c0,4.51,1.208,7.969,3.615,10.377c2.412,2.412,5.905,3.621,10.48,3.621
					c1.73,0,3.635-0.193,5.713-0.58c2.073-0.385,4.119-0.943,6.126-1.678v4.707c-3.498,1.486-7.377,2.229-11.642,2.229
					c-6.211,0-11.054-1.631-14.523-4.9c-3.475-3.268-5.21-7.814-5.21-13.629c0-4.035,0.889-7.703,2.661-10.994
					c1.772-3.295,4.298-5.877,7.575-7.748c3.272-1.871,7.043-2.807,11.312-2.807c3.592,0,6.804,0.738,9.629,2.205
					c2.831,1.471,5.013,3.564,6.545,6.277C671.044,671.334,671.81,674.465,671.81,678.01z M646.712,681.076
					c0,3.445,1.405,5.172,4.217,5.172c1.468,0,2.591-0.523,3.357-1.562c0.767-1.033,1.232-2.721,1.396-5.059l0.32-5.416
					c-0.833-0.18-1.773-0.273-2.821-0.273c-2.041,0-3.63,0.641-4.768,1.914C647.28,677.125,646.712,678.865,646.712,681.076z"/>
			</g>
		</g>
		<g>
			<path fill="#9570EE" d="M461.31,24.403H223.506c-19.315,0-34.972,15.657-34.972,34.972c0,19.315,15.657,34.973,34.972,34.973
				h17.486l16.903,16.902l16.903-16.902H461.31c19.315,0,34.972-15.657,34.972-34.973C496.282,40.06,480.625,24.403,461.31,24.403z"
				/>
			<path fill="#FFFFFF" d="M393.265,70.528H236.784c-2.163,0-3.912-1.754-3.912-3.912l0,0c0-2.163,1.749-3.912,3.912-3.912h156.481
				c2.158,0,3.912,1.749,3.912,3.912l0,0C397.177,68.774,395.423,70.528,393.265,70.528z"/>
			<path fill="#FFFFFF" d="M344.362,49.012H236.784c-2.163,0-3.912-1.754-3.912-3.912l0,0c0-2.163,1.749-3.912,3.912-3.912h107.578
				c2.163,0,3.912,1.749,3.912,3.912l0,0C348.273,47.258,346.524,49.012,344.362,49.012z"/>
		</g>
		<g>
			<path fill="#F7D3A9" d="M786.342,467.543c0,0-2.911,8.633-4.519,13.852c0,0,14.26-0.301,19.277-6.926l-5.318-12.752
				L786.342,467.543z"/>
			<g>
				<polygon fill="#F79A74" points="784.202,705.629 785.42,711.059 793.291,711.5 791.626,704.852 				"/>
				<path fill="#544DB8" d="M785.42,711.059c0,0-13.193,6.875-13.085,7.316c0.112,0.447,22.286-1.885,22.286-1.885l-1.33-4.99
					L785.42,711.059z"/>
			</g>
			<g>
				<polygon fill="#F79A74" points="850.728,694.682 853.817,699.314 861.321,696.893 857.376,691.287 				"/>
				<path fill="#544DB8" d="M853.817,699.314c0,0-9.837,11.162-9.573,11.533c0.264,0.375,20.114-9.779,20.114-9.779l-3.037-4.176
					L853.817,699.314z"/>
			</g>
			<path fill="#FFC240" d="M769.565,562.049c0,0-22.616,73.842,13.301,145.018h10.646c0,0-21.285-80.49,5.322-145.68
				L769.565,562.049z"/>
			<path fill="#FFC240" d="M789.2,564.664c0,0,3.508,77.143,61.255,132.115l10.024-3.578c0,0-47.094-68.66-43.934-139L789.2,564.664
				z"/>
			<g>
				<path fill="#F79A74" d="M778.842,390.838l0.028-4.553c0-0.201-0.023-0.398-0.075-0.592l-0.865-3.258l-2.596,0.662l-2.646-2.445
					c-1.119-1.029-2.915-0.689-3.56,0.684c-0.818,1.729-1.749,3.963-2.04,5.664c-0.118,0.678,0.107,1.359,0.568,1.867l4.049,4.43
					c0.578,0.635,1.471,0.883,2.299,0.639l3.226-0.953C778.184,392.7,778.837,391.831,778.842,390.838z"/>
				<path fill="#FF4F72" d="M817.857,490.69c0,0-29.499-31.615-31.44-43.449c-1.947-11.83-6.259-55.848-6.259-55.848l-9.098,1.758
					c0,0-3.122,62.957-0.362,70.207c2.765,7.25,20.5,44.203,32.053,47.611C814.303,514.383,822.418,502.991,817.857,490.69z"/>
				<path fill="#F79A74" d="M776.881,438.542c0,0-6.652,22.137-2.439,27.719c4.217,5.58,19.733,0.525,25.756-8.402
					c6.023-8.93,7.231-29.025-3.014-30.699C786.948,425.485,779.293,429.614,776.881,438.542z"/>
				<path fill="#FF4F72" d="M816.795,568.039c0,0,5.985-63.859,5.985-81.158c0-0.789-0.014-1.533-0.023-2.275
					c-4.452-11.246-15.507-11.025-19.931-10.143c-4.435,0.889-21.732,6.434-21.619,7.096l-0.047-0.057
					c-5.957,4.326-10.514,9.455-10.932,10.701c0,0-15.963,33.262-1.994,73.175L816.795,568.039z"/>
				<path fill="#F79A74" d="M732.252,394.1l-0.776-4.484c-0.032-0.197-0.094-0.391-0.179-0.568l-1.424-3.057l-2.436,1.109
					l-3.038-1.941c-1.278-0.818-2.985-0.17-3.385,1.297c-0.499,1.848-1.025,4.209-1.011,5.934c0.004,0.688,0.343,1.322,0.889,1.734
					l4.758,3.65c0.687,0.525,1.608,0.611,2.379,0.23l3.01-1.51C731.928,396.051,732.421,395.079,732.252,394.1z"/>
				<path fill="#FF4F72" d="M788.189,485.551c0,0-34.592-25.939-38.579-37.252c-3.991-11.309-15.967-53.883-15.967-53.883
					l-8.646,3.328c0,0,7.983,62.529,11.971,69.184c3.991,6.652,27.942,39.912,39.913,41.244
					C788.856,509.502,794.842,496.86,788.189,485.551z"/>
				<path fill="#544DB8" d="M801.495,427.014c0,0-17.74-7.537-26.165,7.982c-4.435,9.758,9.756,0.443,12.417,3.545
					c2.661,3.109-3.545,9.314-1.772,11.535c1.772,2.215,4.876-3.992,6.653-0.447c1.772,3.551-2.661,3.992-5.77,7.984
					c-3.104,3.99,2.661,9.756-1.772,13.305c-4.434,3.545-16.852,6.207-9.314,25.277c7.542,19.07-12.417,23.947-3.991,50.111
					c8.43,26.166,65.637,40.803,76.281,9.758c10.641-31.042-24.835-38.583-22.62-52.332c2.22-13.748,10.203-17.293-0.441-31.041
					c-10.646-13.748-17.299-21.732-14.19-30.6C813.913,433.219,805.487,427.014,801.495,427.014z"/>
			</g>
		</g>
		<path fill="#FEC800" d="M849.872,319.79c-21.06,0-38.137,17.072-38.137,38.136c0,21.06,17.077,38.132,38.137,38.132
			s38.137-17.072,38.137-38.132C888.009,336.862,870.932,319.79,849.872,319.79z M830.59,354.958c0-2.576,2.088-4.659,4.664-4.659
			c2.572,0,4.66,2.083,4.66,4.659c0,2.572-2.088,4.66-4.66,4.66C832.678,359.619,830.59,357.531,830.59,354.958z M849.872,378.735
			c-6.141,0-11.199-4.564-12.013-10.479h24.021C861.072,374.17,856.013,378.735,849.872,378.735z M864.49,359.619
			c-2.577,0-4.659-2.088-4.659-4.66c0-2.576,2.082-4.659,4.659-4.659c2.576,0,4.659,2.083,4.659,4.659
			C869.149,357.531,867.066,359.619,864.49,359.619z"/>
		<polygon fill="#F9FBFC" points="283.417,629.148 281.184,624.682 341.635,594.459 417.898,595.705 500.701,564.518 
			563.95,564.518 631.478,542.006 632.028,542.066 686.184,548.221 716.708,532.348 719.012,536.778 687.138,553.352 
			686.376,553.266 632.014,547.088 564.354,569.506 501.162,569.506 418.772,600.717 418.298,600.707 342.777,599.471 		"/>
		<g>
			<path fill="#544DB8" d="M505.281,509.385c0,0,59.905,97.031,52.416,164.529l40.77,0.842l-17.473-10.123l4.989-0.846
				c0,0-14.976-104.621-29.118-141.746c-14.815-38.883-19.137-24.469-19.137-24.469L505.281,509.385z"/>
			<path fill="#544DB8" d="M483.648,503.362c0,0,3.329,67.396-1.665,93.185c-4.993,25.793-19.968,76.545-19.968,76.545l38.273,0.832
				l-10.053-7.096l-6.38-3.719c0,0,27.251-73.217,29.743-108.164c2.497-34.945,6.658-54.912,6.658-54.912L483.648,503.362z"/>
			<g>
				<polyline fill="#F7D3A9" points="561.962,303.888 568.201,299.52 571.008,289.223 567.891,288.597 566.02,292.34 
					567.891,274.558 564.769,275.183 561.651,292.34 557.904,300.456 561.336,302.637 				"/>
				<polygon fill="#F7D3A9" points="598.88,322.399 599.712,314.909 608.867,305.759 610.945,308.674 607.616,312.417 
					625.093,308.255 625.093,312.003 608.867,318.238 605.538,324.064 				"/>
				<g>
					<g>
						<g>
							<path fill="#6DB8FF" d="M557.631,297.592c0,0-71.054,86.227-79.329,103.473c0,0-3.451,6.205-3.451,24.143
								s6.211,84.158,6.211,84.158l72.431,4.139c0,0-23.457-80.707-24.144-82.775c-0.691-2.07-12.417-14.486-23.457-17.248
								l60.705-109.678L557.631,297.592z"/>
							<g>
								<path fill="#F7D3A9" d="M512.64,405.151c0,0,3.019,8.957,4.683,14.367c0,0-14.782-0.309-19.987-7.184l5.521-13.221
									L512.64,405.151z"/>
								<g>
									<path fill="#F7D3A9" d="M523.882,377.165c0,0,4.372,25.471,0,31.254c-4.373,5.787-19.362-4.049-25.611-13.311
										c-6.244-9.258-7.494-30.097,3.127-31.831C512.015,361.542,521.385,367.908,523.882,377.165z"/>
								</g>
							</g>
							<path fill="#6DB8FF" d="M517.158,424.305c0,0,56.967-35.832,61.561-43.182c4.594-7.348,17.458-62.021,17.458-62.021
								l11.025,2.76c0,0-6.432,61.099-8.271,67.532c-1.838,6.432-57.884,66.148-70.748,66.148
								C515.324,455.543,510.73,439.008,517.158,424.305z"/>
						</g>
					</g>
				</g>
			</g>
			<path fill="#544DB8" d="M519.838,371.491c0,0,2.915-9.987-3.324-14.98c-6.244-4.988-17.058-4.156-18.723-2.491
				c0,2.91,6.658,4.574,4.993,6.239c-1.664,1.664-10.4,0-12.483,8.735c-2.078,8.735,0.833,10.399,0.833,10.399
				s-4.575,5.408,0.832,12.898c5.412,7.484,17.632,13.658,20.674,12.859c3.042-0.801,1.378-12.447,1.378-12.447
				s-7.072-0.832-7.49-5.406c-0.414-4.574,3.329-4.994,4.993-3.328c1.664,1.664,2.078,5.406,3.329,4.574
				c1.246-0.832-0.419-9.568-0.419-9.568S519.011,375.233,519.838,371.491z"/>
		</g>
		<g>
			<path fill="#9570EE" d="M553.371,626.369l-42.781,11.732c-11.765,3.23-18.746,15.492-15.521,27.256l8.092,29.504
				c3.225,11.764,15.492,18.75,27.256,15.525l12.826-3.521l12.63,12.482l4.494-17.18l12.827-3.518
				c11.769-3.225,18.751-15.492,15.525-27.256l-8.092-29.504C577.397,630.127,565.136,623.141,553.371,626.369z"/>
			<g>
				<path fill="#FFFFFF" d="M525.062,674.719c0.72,2.613-0.818,5.312-3.432,6.027c-2.614,0.719-5.313-0.818-6.033-3.432
					c-0.715-2.615,0.823-5.312,3.433-6.033C521.644,670.566,524.347,672.104,525.062,674.719z"/>
				<path fill="#FFFFFF" d="M546.624,668.805c0.715,2.613-0.822,5.312-3.437,6.031c-2.614,0.715-5.313-0.822-6.028-3.438
					c-0.719-2.613,0.818-5.312,3.433-6.031C543.206,664.652,545.905,666.189,546.624,668.805z"/>
				<path fill="#FFFFFF" d="M568.182,662.889c0.72,2.615-0.817,5.312-3.432,6.033c-2.614,0.715-5.313-0.824-6.032-3.438
					c-0.715-2.615,0.822-5.312,3.437-6.033C564.769,658.736,567.468,660.275,568.182,662.889z"/>
			</g>
		</g>
		<path fill="#FFC240" d="M349.694,595.715c0,4.367-3.541,7.902-7.904,7.902c-4.368,0-7.904-3.535-7.904-7.902
			c0-4.363,3.536-7.904,7.904-7.904C346.153,587.811,349.694,591.352,349.694,595.715z"/>
		<path fill="#FF4F72" d="M640.068,544.963c0,4.367-3.541,7.904-7.904,7.904c-4.368,0-7.908-3.537-7.908-7.904
			c0-4.363,3.54-7.904,7.908-7.904C636.527,537.059,640.068,540.6,640.068,544.963z"/>
	</g>
</g>
</svg>
