<?xml version="1.0" encoding="utf-8"?>
<!-- Generator: Adobe Illustrator 16.0.0, SVG Export Plug-In . SVG Version: 6.00 Build 0)  -->
<!DOCTYPE svg PUBLIC "-//W3C//DTD SVG 1.1//EN" "http://www.w3.org/Graphics/SVG/1.1/DTD/svg11.dtd">
<svg version="1.1" id="Livello_1" xmlns="http://www.w3.org/2000/svg" xmlns:xlink="http://www.w3.org/1999/xlink" x="0px" y="0px"
	 width="581.669px" height="127.414px" viewBox="0 0 581.669 127.414" enable-background="new 0 0 581.669 127.414"
	 xml:space="preserve">
<g>
	<g>
		<g>
			<path fill="#ffffff" stroke="#ffffff" stroke-width="3" stroke-miterlimit="10" d="M63.421,1.5v97.974H59.24V85.236
				c-2.612,4.79-6.401,8.6-11.364,11.43c-4.965,2.83-10.061,4.246-15.285,4.246c-8.621,0-15.959-3.025-22.013-9.078
				C4.525,85.782,1.5,78.532,1.5,70.083c0-8.445,3.025-15.696,9.078-21.751c6.054-6.052,13.392-9.079,22.013-9.079
				c5.398,0,10.604,1.438,15.61,4.312c5.008,2.874,8.688,6.705,11.039,11.493V1.5H63.421z M5.68,70.146
				c0,7.36,2.615,13.718,7.84,19.074c5.224,5.355,11.515,8.034,18.876,8.034c7.358,0,13.716-2.679,19.071-8.034
				c5.356-5.356,8.035-11.692,8.035-19.006c0-7.316-2.679-13.695-8.035-19.141c-5.355-5.44-11.691-8.164-19.006-8.164
				c-7.315,0-13.607,2.7-18.876,8.101C8.314,56.411,5.68,62.79,5.68,70.146z"/>
			<path fill="#ffffff" stroke="#ffffff" stroke-width="3" stroke-miterlimit="10" d="M81.576,91.572
				c-6.009-6.226-9.013-13.477-9.013-21.751c0-8.273,3.047-15.435,9.145-21.489c6.094-6.052,13.434-9.079,22.01-9.079
				c8.577,0,15.894,3.027,21.947,9.079c6.051,6.055,9.078,13.239,9.078,21.555c0,8.318-2.959,15.568-8.883,21.751
				s-13.105,9.274-21.553,9.274h-1.176C94.771,100.912,87.585,97.799,81.576,91.572z M130.563,70.146
				c0-7.356-2.635-13.735-7.903-19.136c-5.271-5.4-11.56-8.101-18.876-8.101s-13.652,2.724-19.006,8.164
				c-5.358,5.445-8.035,11.824-8.035,19.141c0,7.313,2.677,13.649,8.035,19.006c5.354,5.355,11.711,8.034,19.071,8.034
				c7.357,0,13.65-2.679,18.877-8.034C127.952,83.864,130.563,77.506,130.563,70.146z"/>
			<path fill="#ffffff" stroke="#ffffff" stroke-width="3" stroke-miterlimit="10" d="M143.886,125.601V40.69h4.181v14.368
				c2.352-4.788,6.029-8.619,11.039-11.493c5.007-2.875,10.21-4.312,15.61-4.312c8.623,0,15.959,3.027,22.012,9.079
				c6.053,6.055,9.08,13.306,9.08,21.751c0,8.449-3.027,15.699-9.08,21.751c-6.053,6.053-13.389,9.078-22.012,9.078
				c-5.227,0-10.32-1.416-15.283-4.246c-4.965-2.83-8.751-6.64-11.366-11.43v40.365H143.886z M147.807,70.214
				c0,7.313,2.677,13.649,8.033,19.006c5.355,5.355,11.711,8.034,19.071,8.034c7.359,0,13.652-2.679,18.877-8.034
				c5.225-5.356,7.838-11.714,7.838-19.074c0-7.356-2.633-13.735-7.902-19.136c-5.271-5.4-11.562-8.101-18.877-8.101
				c-7.315,0-13.651,2.724-19.007,8.164C150.483,56.519,147.807,62.898,147.807,70.214z"/>
			<path fill="#ffffff" stroke="#ffffff" stroke-width="3" stroke-miterlimit="10" d="M214.95,125.601V40.69h4.18v14.368
				c2.352-4.788,6.029-8.619,11.037-11.493c5.008-2.875,10.209-4.312,15.609-4.312c8.625,0,15.959,3.027,22.016,9.079
				c6.051,6.055,9.078,13.306,9.078,21.751c0,8.449-3.027,15.699-9.078,21.751c-6.057,6.053-13.391,9.078-22.016,9.078
				c-5.223,0-10.318-1.416-15.283-4.246c-4.961-2.83-8.75-6.64-11.363-11.43v40.365H214.95z M218.868,70.214
				c0,7.313,2.68,13.649,8.033,19.006c5.357,5.355,11.713,8.034,19.074,8.034c7.357,0,13.65-2.679,18.875-8.034
				c5.225-5.356,7.84-11.714,7.84-19.074c0-7.356-2.637-13.735-7.906-19.136c-5.268-5.4-11.559-8.101-18.875-8.101
				c-7.314,0-13.65,2.724-19.008,8.164C221.548,56.519,218.868,62.898,218.868,70.214z"/>
			<path fill="#ffffff" stroke="#ffffff" stroke-width="3" stroke-miterlimit="10" d="M289.8,26.451
				c-2.527,0-3.787-1.176-3.787-3.527s1.26-3.525,3.787-3.525c2.523,0,3.789,1.174,3.789,3.525S292.323,26.451,289.8,26.451z
				 M291.89,40.822v58.652h-4.18V40.822H291.89z"/>
			<path fill="#B0CC3C" stroke="#B0CC3C" stroke-width="3" stroke-miterlimit="10" d="M311.745,91.572
				c-6.01-6.226-9.012-13.477-9.012-21.751c0-8.273,3.045-15.435,9.143-21.489c6.096-6.052,13.434-9.079,22.012-9.079
				s15.895,3.027,21.947,9.079c6.051,6.055,9.078,13.239,9.078,21.555c0,8.318-2.961,15.568-8.883,21.751
				c-5.924,6.183-13.107,9.274-21.553,9.274H333.3C324.938,100.912,317.755,97.799,311.745,91.572z M360.733,70.146
				c0-7.356-2.635-13.735-7.902-19.136c-5.271-5.4-11.562-8.101-18.877-8.101c-7.316,0-13.652,2.724-19.008,8.164
				c-5.355,5.445-8.033,11.824-8.033,19.141c0,7.313,2.678,13.649,8.033,19.006c5.355,5.355,11.711,8.034,19.072,8.034
				c7.357,0,13.652-2.679,18.875-8.034C358.12,83.864,360.733,77.506,360.733,70.146z"/>
			<path fill="#ffffff" stroke="#ffffff" stroke-width="3" stroke-miterlimit="10" d="M409.433,95.818v3.656h-40.494l33.439-55.128
				h-29.912V40.69h37.359l-33.572,55.128H409.433z"/>
			<path fill="#ffffff" stroke="#ffffff" stroke-width="3" stroke-miterlimit="10" d="M447.054,101.043h-1.174
				c-8.273,0-15.48-3.112-21.621-9.343c-6.137-6.225-9.207-13.476-9.207-21.75c0-8.271,3.047-15.435,9.143-21.487
				c6.096-6.051,13.629-9.079,22.6-9.079c8.969,0,16.676,3.571,23.121,10.712l-41.018,40.495c5.658,4.529,11.102,6.793,16.328,6.793
				s9.906-1.197,14.043-3.591c4.137-2.395,7.555-5.597,10.256-9.602v6.661C463.339,97.646,455.851,101.043,447.054,101.043z
				 M445.685,43.042c-6.924,0-13.062,2.679-18.42,8.032c-5.357,5.358-8.033,11.52-8.033,18.485c0,6.97,2.305,13.063,6.922,18.289
				l38.014-37.752C458.767,45.393,452.608,43.042,445.685,43.042z"/>
			<path fill="#ffffff" stroke="#ffffff" stroke-width="3" stroke-miterlimit="10" d="M500.743,42.91
				c-4.617,0-8.686,1.743-12.213,5.226c-3.527,3.485-5.293,7.535-5.293,12.149v39.189h-4.18V40.69h4.18v8.751
				c1.57-2.96,4.006-5.396,7.316-7.313c3.309-1.914,7.01-2.875,11.105-2.875c4.09,0,8.012,1.395,11.756,4.18v5.227
				C509.581,44.827,505.358,42.91,500.743,42.91z"/>
			<path fill="#B0CC3C" stroke="#B0CC3C" stroke-width="3" stroke-miterlimit="10" d="M527.001,91.572
				c-6.008-6.226-9.016-13.477-9.016-21.751c0-8.273,3.049-15.435,9.145-21.489c6.096-6.052,13.434-9.079,22.014-9.079
				c8.576,0,15.891,3.027,21.945,9.079c6.053,6.055,9.08,13.239,9.08,21.555c0,8.318-2.963,15.568-8.883,21.751
				c-5.924,6.183-13.109,9.274-21.557,9.274h-1.176C540.194,100.912,533.009,97.799,527.001,91.572z M575.989,70.146
				c0-7.356-2.637-13.735-7.904-19.136c-5.271-5.4-11.562-8.101-18.877-8.101s-13.65,2.724-19.008,8.164
				c-5.355,5.445-8.033,11.824-8.033,19.141c0,7.313,2.678,13.649,8.033,19.006c5.357,5.355,11.713,8.034,19.072,8.034
				s13.652-2.679,18.877-8.034C573.376,83.864,575.989,77.506,575.989,70.146z"/>
		</g>
		
			<line fill="#ffffff" stroke="#ffffff" stroke-width="6" stroke-miterlimit="10" x1="302.763" y1="124.414" x2="364.813" y2="124.414"/>
		
			<line fill="#ffffff" stroke="#ffffff" stroke-width="6" stroke-miterlimit="10" x1="518.052" y1="16.108" x2="580.103" y2="16.108"/>
	</g>
</g>
</svg>
